<svg xmlns="http://www.w3.org/2000/svg" width="1440" height="1120" viewBox="0 0 1440 1120">
  <style>
    text { font-family: "Noto Sans JP", "Yu Gothic", "Meiryo", sans-serif; fill: #172033; }
    .title { font-size: 28px; font-weight: 700; }
    .section { font-size: 19px; font-weight: 700; fill: #1453a3; }
    .label { font-size: 15px; font-weight: 700; }
    .body { font-size: 14px; }
    .small { font-size: 12px; }
    .muted { fill: #667085; }
    .blue { fill: #0b66c3; }
    .green { fill: #15803d; }
    .red { fill: #c62828; }
    .orange { fill: #b56a00; }
    .panel { fill: #ffffff; stroke: #b9c4d3; stroke-width: 1.5; }
    .soft { fill: #f7f9fc; stroke: #c7d0dc; stroke-width: 1.2; }
    .bluebox { fill: #f5f9ff; stroke: #3b82f6; stroke-width: 1.5; }
    .errorbox { fill: #fff4f4; stroke: #ef4444; stroke-width: 1.5; }
    .header { fill: #f8fafc; stroke: #c7d0dc; stroke-width: 1; }
    .row { fill: #ffffff; stroke: #d5dce6; stroke-width: 1; }
    .btn { fill: #ffffff; stroke: #98a2b3; stroke-width: 1.2; rx: 6; }
    .btnblue { fill: #0b66c3; stroke: #0b66c3; stroke-width: 1.2; rx: 6; }
    .disabled { fill: #f2f4f7; stroke: #d0d5dd; stroke-width: 1.2; rx: 6; }
  </style>

  <rect width="1440" height="1120" fill="#ffffff"/>
  <rect x="24" y="24" width="14" height="14" fill="#102a56"/>
  <text x="50" y="39" class="title">手動レビュー画面 全体構成案（#55 / #56）</text>

  <rect x="24" y="58" width="900" height="170" rx="8" class="bluebox"/>
  <text x="44" y="86" class="section">概要</text>
  <text x="50" y="116" class="body">・インポートした内容はレビュー下書きとして画面に反映するだけで、曲情報には反映しない。</text>
  <text x="50" y="143" class="body">・曲情報を更新する操作は「一括反映」のみとする。</text>
  <text x="50" y="170" class="body">・一括反映では、状態が「確定」または「却下」の行を処理する。</text>
  <text x="50" y="197" class="body">・反映完了後、対象行は未レビュータブから除外し、レビュー済みタブへ表示する。</text>
  <text x="50" y="224" class="body">・「未レビュー」と「保留」は一括反映の対象外とする。</text>

  <rect x="24" y="246" width="900" height="630" rx="8" class="panel"/>
  <rect x="24" y="246" width="900" height="66" rx="8" class="header"/>
  <text x="58" y="287" class="label blue">未レビュー</text>
  <line x1="44" y1="305" x2="152" y2="305" stroke="#0b66c3" stroke-width="4"/>
  <text x="190" y="287" class="label">レビュー済み</text>
  <text x="314" y="287" class="small muted">後続Issue</text>

  <rect x="548" y="261" width="110" height="38" class="btn"/>
  <text x="578" y="286" class="label">エクスポート</text>
  <rect x="670" y="261" width="98" height="38" class="btn"/>
  <text x="695" y="286" class="label">インポート</text>
  <rect x="780" y="261" width="124" height="38" class="btnblue"/>
  <text x="813" y="286" class="label" fill="#ffffff">一括反映</text>

  <rect x="42" y="330" width="182" height="48" rx="7" fill="#f4f8ff" stroke="#3b82f6"/>
  <text x="68" y="360" class="label blue">未レビュー　120</text>
  <rect x="238" y="330" width="182" height="48" rx="7" fill="#f2fbf5" stroke="#22a06b"/>
  <text x="267" y="360" class="label green">確定予定　0</text>
  <rect x="434" y="330" width="182" height="48" rx="7" fill="#fff5f5" stroke="#ef4444"/>
  <text x="462" y="360" class="label red">却下予定　0</text>
  <rect x="630" y="330" width="182" height="48" rx="7" fill="#fff9ee" stroke="#f59e0b"/>
  <text x="671" y="360" class="label orange">保留　0</text>

  <rect x="38" y="396" width="872" height="50" class="header"/>
  <line x1="185" y1="396" x2="185" y2="786" stroke="#d5dce6"/>
  <line x1="350" y1="396" x2="350" y2="786" stroke="#d5dce6"/>
  <line x1="470" y1="396" x2="470" y2="786" stroke="#d5dce6"/>
  <line x1="665" y1="396" x2="665" y2="786" stroke="#d5dce6"/>
  <line x1="790" y1="396" x2="790" y2="786" stroke="#d5dce6"/>
  <text x="66" y="417" class="label">タイトルROI</text>
  <text x="54" y="437" class="small muted">（内部切り出し画像）</text>
  <text x="205" y="417" class="label">アーティストROI</text>
  <text x="210" y="437" class="small muted">（内部切り出し画像）</text>
  <text x="392" y="427" class="label">状態</text>
  <text x="528" y="427" class="label">確定曲</text>
  <text x="703" y="427" class="label">メモ</text>
  <text x="808" y="417" class="label">保存状態 /</text>
  <text x="821" y="437" class="label">入力エラー</text>

  <rect x="38" y="446" width="872" height="84" class="row"/>
  <rect x="58" y="462" width="106" height="52" fill="#f2f4f7" stroke="#c7d0dc"/>
  <text x="97" y="494" class="body muted">画像</text>
  <rect x="205" y="462" width="124" height="52" fill="#f2f4f7" stroke="#c7d0dc"/>
  <text x="249" y="494" class="body muted">画像</text>
  <rect x="365" y="466" width="92" height="38" rx="5" fill="#ffffff" stroke="#98a2b3"/>
  <text x="377" y="490" class="body">未レビュー⌄</text>
  <rect x="484" y="466" width="165" height="38" rx="5" fill="#ffffff" stroke="#98a2b3"/>
  <text x="500" y="490" class="body">未選択　　　　　　⌄</text>
  <rect x="680" y="466" width="94" height="38" rx="5" fill="#ffffff" stroke="#98a2b3"/>
  <text x="812" y="490" class="body green">✓ 保存済み</text>

  <rect x="38" y="530" width="872" height="84" class="row"/>
  <rect x="58" y="546" width="106" height="52" fill="#f2f4f7" stroke="#c7d0dc"/>
  <text x="97" y="578" class="body muted">画像</text>
  <rect x="205" y="546" width="124" height="52" fill="#f2f4f7" stroke="#c7d0dc"/>
  <text x="249" y="578" class="body muted">画像</text>
  <rect x="365" y="550" width="92" height="38" rx="5" fill="#ffffff" stroke="#22a06b"/>
  <text x="388" y="574" class="body">確定　⌄</text>
  <rect x="484" y="550" width="165" height="38" rx="5" fill="#ffffff" stroke="#98a2b3"/>
  <text x="497" y="574" class="body">Grip &amp; Break down !!⌄</text>
  <rect x="680" y="550" width="94" height="38" rx="5" fill="#ffffff" stroke="#98a2b3"/>
  <text x="812" y="574" class="body green">✓ 保存済み</text>

  <rect x="38" y="614" width="872" height="84" class="row"/>
  <rect x="58" y="630" width="106" height="52" fill="#f2f4f7" stroke="#c7d0dc"/>
  <text x="97" y="662" class="body muted">画像</text>
  <rect x="205" y="630" width="124" height="52" fill="#f2f4f7" stroke="#c7d0dc"/>
  <text x="249" y="662" class="body muted">画像</text>
  <rect x="365" y="634" width="92" height="38" rx="5" fill="#ffffff" stroke="#f59e0b"/>
  <text x="388" y="658" class="body">保留　⌄</text>
  <rect x="484" y="634" width="165" height="38" rx="5" fill="#ffffff" stroke="#98a2b3"/>
  <text x="500" y="658" class="body">未選択　　　　　　⌄</text>
  <rect x="680" y="634" width="94" height="38" rx="5" fill="#ffffff" stroke="#98a2b3"/>
  <text x="696" y="658" class="body">要再確認</text>
  <text x="812" y="658" class="body green">✓ 保存済み</text>

  <rect x="38" y="698" width="872" height="88" fill="#fff8f8" stroke="#f4b4b4"/>
  <rect x="58" y="714" width="106" height="52" fill="#f2f4f7" stroke="#c7d0dc"/>
  <text x="97" y="746" class="body muted">画像</text>
  <rect x="205" y="714" width="124" height="52" fill="#f2f4f7" stroke="#c7d0dc"/>
  <text x="249" y="746" class="body muted">画像</text>
  <rect x="365" y="718" width="92" height="38" rx="5" fill="#ffffff" stroke="#22a06b"/>
  <text x="388" y="742" class="body">確定　⌄</text>
  <rect x="484" y="718" width="165" height="38" rx="5" fill="#ffffff" stroke="#ef4444" stroke-width="2"/>
  <text x="500" y="742" class="body">未選択　　　　　　⌄</text>
  <text x="810" y="732" class="label red">△ 入力エラー</text>
  <text x="810" y="754" class="small">確定曲を選択してください</text>

  <rect x="38" y="804" width="872" height="56" rx="6" class="errorbox"/>
  <text x="58" y="828" class="label red">△ 入力内容に1件のエラーがあります</text>
  <text x="72" y="850" class="body">対象ID 123：状態が「確定」の場合、確定曲を選択してください。</text>

  <text x="970" y="274" class="section">確定曲の選択（候補内検索）</text>
  <rect x="970" y="294" width="422" height="485" rx="8" class="panel"/>
  <rect x="988" y="314" width="170" height="38" rx="5" fill="#ffffff" stroke="#3b82f6" stroke-width="1.5"/>
  <text x="1002" y="339" class="body">未選択　　　　　　⌄</text>
  <rect x="988" y="366" width="386" height="44" rx="5" fill="#ffffff" stroke="#98a2b3"/>
  <text x="1004" y="394" class="body muted">曲名・アーティスト・曲IDで検索　⌕</text>

  <text x="992" y="442" class="label">アイスクリームマジック</text>
  <text x="992" y="466" class="body">DJ TOTTO</text>
  <text x="1278" y="466" class="small muted">曲ID: 00001</text>
  <line x1="988" y1="480" x2="1374" y2="480" stroke="#d5dce6"/>

  <text x="992" y="518" class="label">蒼い衝動 ～for EXTREME～</text>
  <text x="992" y="542" class="body">NAOKI feat.YUKI</text>
  <text x="1278" y="542" class="small muted">曲ID: 00002</text>
  <line x1="988" y1="556" x2="1374" y2="556" stroke="#d5dce6"/>

  <text x="992" y="594" class="label">蒼が消えるとき</text>
  <text x="992" y="618" class="body">movies (moimoi×Xceon×Dai.)</text>
  <text x="1278" y="618" class="small muted">曲ID: 00003</text>
  <line x1="988" y1="632" x2="1374" y2="632" stroke="#d5dce6"/>

  <text x="992" y="670" class="label">A Brighter Day</text>
  <text x="992" y="694" class="body">NAOKI</text>
  <text x="1278" y="694" class="small muted">曲ID: 00004</text>
  <line x1="988" y1="708" x2="1374" y2="708" stroke="#d5dce6"/>

  <text x="992" y="746" class="label">Air Heroes</text>
  <text x="992" y="770" class="body">Darwin</text>
  <text x="1278" y="770" class="small muted">曲ID: 00005</text>

  <rect x="24" y="896" width="900" height="190" rx="8" fill="#fbfdff" stroke="#3b82f6" stroke-width="1.5" stroke-dasharray="6 4"/>
  <text x="44" y="925" class="section">#56で実装する範囲</text>
  <rect x="42" y="942" width="425" height="126" rx="6" class="bluebox"/>
  <text x="58" y="968" class="label blue">このIssueで実装</text>
  <text x="60" y="994" class="body">・未レビュータブ</text>
  <text x="60" y="1018" class="body">・タイトルROI（内部切り出し画像）の表示</text>
  <text x="60" y="1042" class="body">・アーティストROI（内部切り出し画像）の表示</text>
  <text x="255" y="994" class="body">・状態の編集</text>
  <text x="255" y="1018" class="body">・確定曲の検索・選択</text>
  <text x="255" y="1042" class="body">・メモ編集、下書き保存、入力エラー表示</text>

  <rect x="482" y="942" width="424" height="126" rx="6" class="soft"/>
  <text x="498" y="968" class="label blue">後続Issueで実装</text>
  <text x="500" y="994" class="body">・レビュー済みタブ</text>
  <text x="500" y="1018" class="body">・エクスポート</text>
  <text x="500" y="1042" class="body">・インポート / 一括反映</text>

  <rect x="952" y="896" width="440" height="190" rx="8" class="panel"/>
  <text x="972" y="927" class="section">注記</text>
  <text x="972" y="962" class="body">本図は、画面上の情報配置と操作の流れを示す</text>
  <text x="972" y="986" class="body">ワイヤーフレームです。</text>
  <text x="972" y="1018" class="body">見た目の完全な再現は求めません。</text>
  <text x="972" y="1050" class="body">動作およびデータ処理はIssue本文を正とします。</text>
</svg>